<svg height="24" viewBox="0 0 24 24" width="24" xmlns="http://www.w3.org/2000/svg"><path d="m6 20v-5.5c0-.8284271.67157288-1.5 1.5-1.5h3c.8284271 0 1.5.6715729 1.5 1.5v5.5h6.5c.8284271 0 1.5-.6715729 1.5-1.5v-8h1v8c0 1.3807119-1.1192881 2.5-2.5 2.5h-13c-1.38071187 0-2.5-1.1192881-2.5-2.5v-8h1v8c0 .8284271.67157288 1.5 1.5 1.5zm1 0h4v-5.5c0-.2761424-.2238576-.5-.5-.5h-3c-.27614237 0-.5.2238576-.5.5zm8-5.5v2c0 .2761424.2238576.5.5.5h1c.2761424 0 .5-.2238576.5-.5v-2c0-.2761424-.2238576-.5-.5-.5h-1c-.2761424 0-.5.2238576-.5.5zm-1 0c0-.8284271.6715729-1.5 1.5-1.5h1c.8284271 0 1.5.6715729 1.5 1.5v2c0 .8284271-.6715729 1.5-1.5 1.5h-1c-.8284271 0-1.5-.6715729-1.5-1.5zm-8-3.5h-2.5c-.82842712 0-1.5-.6715729-1.5-1.5v-.8074176c0-.19082914.0364128-.3799056.10728496-.55708601l1.92847669-4.82119173c.07593168-.18982919.25978606-.31430466.46423835-.31430466h15c.2044523 0 .3883067.12447547.4642383.31430466l1.9284767 4.82119173c.0708722.17718041.107285.36625687.107285.55708601v.8074176c0 .8284271-.6715729 1.5-1.5 1.5h-2.5c-.3841772 0-.7346218-.1444268-1-.3819467-.2653782.2375199-.6158228.3819467-1 .3819467h-3c-.3841772 0-.7346218-.1444268-1-.3819467-.2653782.2375199-.6158228.3819467-1 .3819467h-3c-.38417722 0-.73462175-.1444268-1-.3819467-.26537825.2375199-.61582278.3819467-1 .3819467zm-1.16148352-7-1.80275483 4.50688707c-.02362405.05906013-.03576165.12208562-.03576165.18569533v.8074176c0 .27614237.22385763.5.5.5h2.5c.27614237 0 .5-.22385763.5-.5v-1c0-.27614237.22385763-.5.5-.5s.5.22385763.5.5v1c0 .27614237.22385763.5.5.5h3c.2761424 0 .5-.22385763.5-.5v-1c0-.27614237.2238576-.5.5-.5s.5.22385763.5.5v1c0 .27614237.2238576.5.5.5h3c.2761424 0 .5-.22385763.5-.5v-1c0-.27614237.2238576-.5.5-.5s.5.22385763.5.5v1c0 .27614237.2238576.5.5.5h2.5c.2761424 0 .5-.22385763.5-.5v-.8074176c0-.06360971-.0121376-.1266352-.0357617-.18569533l-1.8027548-4.50688707z"/></svg>